# 3ds Max Wavefront OBJ Exporter v0.97b - (c)2007 guruware
# File Created: 22.11.2021 13:40:18

mtllib recamara3.mtl

#
# object PuertaIzquierdaRecamara3
#

v  64.1201 9.9658 -31.9320
v  64.1201 9.9658 -29.2090
v  130.5845 9.9658 -31.9320
v  130.5845 9.9658 -29.2090
v  130.5845 -30.0342 -29.2090
v  64.1201 -30.0342 -29.2090
v  130.5845 -30.0342 -31.9320
v  64.1201 -30.0342 -31.9320
# 8 vertices

vn 0.0000 1.0000 -0.0000
vn 0.0000 -1.0000 -0.0000
vn 0.0000 0.0000 1.0000
vn 1.0000 0.0000 -0.0000
vn 0.0000 0.0000 -1.0000
vn -1.0000 0.0000 -0.0000
# 6 vertex normals

vt 0.0000 1.0000 0.0000
vt 0.0000 0.0000 0.0000
vt 1.0000 1.0000 0.0000
vt 1.0000 0.0000 0.0000
# 4 texture coords

o PuertaIzquierdaRecamara3
g PuertaIzquierdaRecamara3
usemtl pared1
s 2
f 1/1/1 2/2/1 3/3/1 
f 4/4/1 3/3/1 2/2/1 
s 4
f 5/2/2 6/4/2 7/1/2 
f 8/3/2 7/1/2 6/4/2 
s 8
f 4/4/3 2/2/3 5/3/3 
f 6/1/3 5/3/3 2/2/3 
s 16
f 3/4/4 4/2/4 7/3/4 
f 5/1/4 7/3/4 4/2/4 
s 32
f 1/4/5 3/2/5 8/3/5 
f 7/1/5 8/3/5 3/2/5 
s 64
f 2/4/6 1/2/6 6/3/6 
f 8/1/6 6/3/6 1/2/6 
# 12 faces

#
# object ParteDerechaRecamara3
#

v  83.2466 11.3980 30.2187
v  83.2466 11.3980 33.8882
v  132.3862 11.3980 30.2187
v  132.3862 11.3980 33.8882
v  132.3862 -28.6020 33.8882
v  83.2466 -28.6020 33.8882
v  132.3862 -28.6020 30.2187
v  83.2466 -28.6020 30.2187
# 8 vertices

vn 0.0000 1.0000 -0.0000
vn 0.0000 -1.0000 -0.0000
vn 0.0000 0.0000 1.0000
vn 1.0000 0.0000 -0.0000
vn 0.0000 0.0000 -1.0000
vn -1.0000 0.0000 -0.0000
# 6 vertex normals

vt 0.0000 1.0000 0.0000
vt 0.0000 0.0000 0.0000
vt 1.0000 1.0000 0.0000
vt 1.0000 0.0000 0.0000
# 4 texture coords

o ParteDerechaRecamara3
g ParteDerechaRecamara3
usemtl pared1
s 2
f 9/5/7 10/6/7 11/7/7 
f 12/8/7 11/7/7 10/6/7 
s 4
f 13/6/8 14/8/8 15/5/8 
f 16/7/8 15/5/8 14/8/8 
s 8
f 12/8/9 10/6/9 13/7/9 
f 14/5/9 13/7/9 10/6/9 
s 16
f 11/8/10 12/6/10 15/7/10 
f 13/5/10 15/7/10 12/6/10 
s 32
f 9/8/11 11/6/11 16/7/11 
f 15/5/11 16/7/11 11/6/11 
s 64
f 10/8/12 9/6/12 14/7/12 
f 16/5/12 14/7/12 9/6/12 
# 12 faces

#
# object Parte_Trasera_Recamara3
#

v  130.0176 10.7685 -28.9030
v  130.0176 10.7685 32.1398
v  132.2685 10.7685 -28.9030
v  132.2685 10.7685 32.1398
v  132.2685 -28.1033 32.1398
v  130.0176 -28.1033 32.1398
v  132.2685 -28.1033 -28.9030
v  130.0176 -28.1033 -28.9030
# 8 vertices

vn 0.0000 1.0000 -0.0000
vn 0.0000 -1.0000 -0.0000
vn 0.0000 0.0000 1.0000
vn 1.0000 0.0000 -0.0000
vn 0.0000 0.0000 -1.0000
vn -1.0000 0.0000 -0.0000
# 6 vertex normals

vt 0.0000 1.0000 0.0000
vt 0.0000 0.0000 0.0000
vt 1.0000 1.0000 0.0000
vt 1.0000 0.0000 0.0000
# 4 texture coords

o Parte_Trasera_Recamara3
g Parte_Trasera_Recamara3
usemtl pared1
s 2
f 17/9/13 18/10/13 19/11/13 
f 20/12/13 19/11/13 18/10/13 
s 4
f 21/10/14 22/12/14 23/9/14 
f 24/11/14 23/9/14 22/12/14 
s 8
f 20/12/15 18/10/15 21/11/15 
f 22/9/15 21/11/15 18/10/15 
s 16
f 19/12/16 20/10/16 23/11/16 
f 21/9/16 23/11/16 20/10/16 
s 32
f 17/12/17 19/10/17 24/11/17 
f 23/9/17 24/11/17 19/10/17 
s 64
f 18/12/18 17/10/18 22/11/18 
f 24/9/18 22/11/18 17/10/18 
# 12 faces

#
# object PisoRecamara3
#

v  63.7661 -27.0140 -31.5786
v  63.7661 -27.0140 33.3870
v  130.2118 -27.0140 -31.5786
v  130.2118 -27.0140 33.3870
v  130.2118 -27.8423 33.3870
v  63.7661 -27.8423 33.3870
v  130.2118 -27.8423 -31.5786
v  63.7661 -27.8423 -31.5786
# 8 vertices

vn 0.0000 1.0000 -0.0000
vn 0.0000 -1.0000 -0.0000
vn 0.0000 0.0000 1.0000
vn 1.0000 0.0000 -0.0000
vn 0.0000 0.0000 -1.0000
vn -1.0000 0.0000 -0.0000
# 6 vertex normals

vt 0.0000 1.0000 0.0000
vt 0.0000 0.0000 0.0000
vt 1.0000 1.0000 0.0000
vt 1.0000 0.0000 0.0000
# 4 texture coords

o PisoRecamara3
g PisoRecamara3
usemtl 06___Default
s 2
f 25/13/19 26/14/19 27/15/19 
f 28/16/19 27/15/19 26/14/19 
s 4
f 29/14/20 30/16/20 31/13/20 
f 32/15/20 31/13/20 30/16/20 
usemtl Material__359
s 8
f 28/16/21 26/14/21 29/15/21 
f 30/13/21 29/15/21 26/14/21 
usemtl Material__358
s 16
f 27/16/22 28/14/22 31/15/22 
f 29/13/22 31/15/22 28/14/22 
usemtl Material__360
s 32
f 25/16/23 27/14/23 32/15/23 
f 31/13/23 32/15/23 27/14/23 
usemtl Material__357
s 64
f 26/16/24 25/14/24 30/15/24 
f 32/13/24 30/15/24 25/14/24 
# 12 faces

