# 3ds Max Wavefront OBJ Exporter v0.97b - (c)2007 guruware
# File Created: 22.11.2021 13:51:55

mtllib pared.mtl

#
# object Pate_izquierda_Garage
#

v  66.2897 3.8590 -29.1625
v  66.2897 3.8590 -32.3966
v  -1.3697 3.8590 -29.1625
v  -1.3697 3.8590 -32.3966
v  -1.3697 -28.4649 -32.3966
v  66.2897 -28.4649 -32.3966
v  -1.3697 -28.4649 -29.1625
v  66.2897 -28.4649 -29.1625
# 8 vertices

vn 0.0000 1.0000 -0.0000
vn 0.0000 -1.0000 -0.0000
vn -0.0000 0.0000 -1.0000
vn -1.0000 0.0000 0.0000
vn 0.0000 0.0000 1.0000
vn 1.0000 0.0000 -0.0000
# 6 vertex normals

vt 0.0000 1.0000 0.0000
vt 0.0000 0.0000 0.0000
vt 1.0000 1.0000 0.0000
vt 1.0000 0.0000 0.0000
# 4 texture coords

o Pate_izquierda_Garage
g Pate_izquierda_Garage
usemtl pared1
s 2
f 1/1/1 2/2/1 3/3/1 
f 4/4/1 3/3/1 2/2/1 
s 4
f 5/2/2 6/4/2 7/1/2 
f 8/3/2 7/1/2 6/4/2 
s 8
f 4/4/3 2/2/3 5/3/3 
f 6/1/3 5/3/3 2/2/3 
s 16
f 3/4/4 4/2/4 7/3/4 
f 5/1/4 7/3/4 4/2/4 
s 32
f 1/4/5 3/2/5 8/3/5 
f 7/1/5 8/3/5 3/2/5 
s 64
f 2/4/6 1/2/6 6/3/6 
f 8/1/6 6/3/6 1/2/6 
# 12 faces

#
# object Parte_superior_Garage
#

v  65.7878 0.0000 -30.1436
v  65.7878 0.0000 34.2838
v  0.0050 0.0000 34.2838
v  0.0050 0.0000 -30.1436
v  65.7878 4.5762 -30.1436
v  0.0050 4.5762 -30.1436
v  0.0050 4.5762 34.2838
v  65.7878 4.5762 34.2838
# 8 vertices

vn 0.0000 -1.0000 -0.0000
vn 0.0000 1.0000 -0.0000
vn -0.0000 0.0000 -1.0000
vn -1.0000 0.0000 0.0000
vn 0.0000 0.0000 1.0000
vn 1.0000 0.0000 -0.0000
# 6 vertex normals

vt 1.0000 0.0000 0.0000
vt 1.0000 1.0000 0.0000
vt 0.0000 1.0000 0.0000
vt 0.0000 0.0000 0.0000
# 4 texture coords

o Parte_superior_Garage
g Parte_superior_Garage
usemtl pared1
s 2
f 9/5/7 10/6/7 11/7/7 
f 11/7/7 12/8/7 9/5/7 
s 4
f 13/8/8 14/5/8 15/6/8 
f 15/6/8 16/7/8 13/8/8 
s 8
f 9/8/9 12/5/9 14/6/9 
f 14/6/9 13/7/9 9/8/9 
s 16
f 12/8/10 11/5/10 15/6/10 
f 15/6/10 14/7/10 12/8/10 
s 32
f 11/8/11 10/5/11 16/6/11 
f 16/6/11 15/7/11 11/8/11 
s 64
f 10/8/12 9/5/12 13/6/12 
f 13/6/12 16/7/12 10/8/12 
# 12 faces

#
# object Parte_Derecha_Garage
#

v  65.0661 3.2103 34.3873
v  65.0661 3.2103 26.1263
v  26.4969 3.2103 34.3873
v  26.4969 3.2103 26.1263
v  26.4969 -30.9306 26.1263
v  65.0661 -30.9306 26.1263
v  26.4969 -30.9306 34.3873
v  65.0661 -30.9306 34.3873
# 8 vertices

vn 0.0000 1.0000 -0.0000
vn 0.0000 -1.0000 -0.0000
vn -0.0000 0.0000 -1.0000
vn -1.0000 0.0000 0.0000
vn 0.0000 0.0000 1.0000
vn 1.0000 0.0000 -0.0000
# 6 vertex normals

vt 0.0000 1.0000 0.0000
vt 0.0000 0.0000 0.0000
vt 1.0000 1.0000 0.0000
vt 1.0000 0.0000 0.0000
# 4 texture coords

o Parte_Derecha_Garage
g Parte_Derecha_Garage
usemtl pared1
s 2
f 17/9/13 18/10/13 19/11/13 
f 20/12/13 19/11/13 18/10/13 
s 4
f 21/10/14 22/12/14 23/9/14 
f 24/11/14 23/9/14 22/12/14 
s 8
f 20/12/15 18/10/15 21/11/15 
f 22/9/15 21/11/15 18/10/15 
s 16
f 19/12/16 20/10/16 23/11/16 
f 21/9/16 23/11/16 20/10/16 
s 32
f 17/12/17 19/10/17 24/11/17 
f 23/9/17 24/11/17 19/10/17 
s 64
f 18/12/18 17/10/18 22/11/18 
f 24/9/18 22/11/18 17/10/18 
# 12 faces

#
# object ParteTraseraGarage
#

v  66.7452 0.0000 33.6338
v  66.7452 0.0000 -31.6844
v  60.7626 0.0000 33.6338
v  60.7626 0.0000 -31.6844
v  60.7626 -28.6718 -31.6844
v  66.7452 -28.6718 -31.6844
v  60.7626 -28.6718 33.6338
v  66.7452 -28.6718 33.6338
# 8 vertices

vn 0.0000 1.0000 -0.0000
vn 0.0000 -1.0000 -0.0000
vn -0.0000 0.0000 -1.0000
vn -1.0000 0.0000 0.0000
vn 0.0000 0.0000 1.0000
vn 1.0000 0.0000 -0.0000
# 6 vertex normals

vt 0.0000 1.0000 0.0000
vt 0.0000 0.0000 0.0000
vt 1.0000 1.0000 0.0000
vt 1.0000 0.0000 0.0000
# 4 texture coords

o ParteTraseraGarage
g ParteTraseraGarage
usemtl pared1
s 2
f 25/13/19 26/14/19 27/15/19 
f 28/16/19 27/15/19 26/14/19 
s 4
f 29/14/20 30/16/20 31/13/20 
f 32/15/20 31/13/20 30/16/20 
s 8
f 28/16/21 26/14/21 29/15/21 
f 30/13/21 29/15/21 26/14/21 
s 16
f 27/16/22 28/14/22 31/15/22 
f 29/13/22 31/15/22 28/14/22 
s 32
f 25/16/23 27/14/23 32/15/23 
f 31/13/23 32/15/23 27/14/23 
s 64
f 26/16/24 25/14/24 30/15/24 
f 32/13/24 30/15/24 25/14/24 
# 12 faces

#
# object Box16942
#

v  -1.1574 0.0000 75.9411
v  -1.1574 0.0000 34.5424
v  67.0613 0.0000 34.5424
v  67.0613 0.0000 75.9411
v  -1.1574 5.3307 75.9411
v  67.0613 5.3307 75.9411
v  67.0613 5.3307 34.5424
v  -1.1574 5.3307 34.5424
# 8 vertices

vn 0.0000 -1.0000 -0.0000
vn 0.0000 1.0000 -0.0000
vn 0.0000 0.0000 1.0000
vn 1.0000 0.0000 -0.0000
vn 0.0000 0.0000 -1.0000
vn -1.0000 0.0000 -0.0000
# 6 vertex normals

vt 1.0000 0.0000 0.0000
vt 1.0000 1.0000 0.0000
vt 0.0000 1.0000 0.0000
vt 0.0000 0.0000 0.0000
# 4 texture coords

o Box16942
g Box16942
usemtl pared1
s 2
f 33/17/25 34/18/25 35/19/25 
f 35/19/25 36/20/25 33/17/25 
s 4
f 37/20/26 38/17/26 39/18/26 
f 39/18/26 40/19/26 37/20/26 
s 8
f 33/20/27 36/17/27 38/18/27 
f 38/18/27 37/19/27 33/20/27 
s 16
f 36/20/28 35/17/28 39/18/28 
f 39/18/28 38/19/28 36/20/28 
s 32
f 35/20/29 34/17/29 40/18/29 
f 40/18/29 39/19/29 35/20/29 
s 64
f 34/20/30 33/17/30 37/18/30 
f 37/18/30 40/19/30 34/20/30 
# 12 faces

#
# object Box16943
#

v  -1.1700 -39.1414 40.2532
v  -1.1700 -39.1414 29.8339
v  0.3061 -39.1414 29.8339
v  0.3061 -39.1414 40.2532
v  -1.1700 5.5720 40.2532
v  0.3061 5.5720 40.2532
v  0.3061 5.5720 29.8339
v  -1.1700 5.5720 29.8339
# 8 vertices

vn 0.0000 -1.0000 -0.0000
vn 0.0000 1.0000 -0.0000
vn 0.0000 0.0000 1.0000
vn 1.0000 0.0000 -0.0000
vn 0.0000 0.0000 -1.0000
vn -1.0000 0.0000 -0.0000
# 6 vertex normals

vt 1.0000 0.0000 0.0000
vt 1.0000 1.0000 0.0000
vt 0.0000 1.0000 0.0000
vt 0.0000 0.0000 0.0000
# 4 texture coords

o Box16943
g Box16943
usemtl pared1
s 2
f 41/21/31 42/22/31 43/23/31 
f 43/23/31 44/24/31 41/21/31 
s 4
f 45/24/32 46/21/32 47/22/32 
f 47/22/32 48/23/32 45/24/32 
s 8
f 41/24/33 44/21/33 46/22/33 
f 46/22/33 45/23/33 41/24/33 
s 16
f 44/24/34 43/21/34 47/22/34 
f 47/22/34 46/23/34 44/24/34 
s 32
f 43/24/35 42/21/35 48/22/35 
f 48/22/35 47/23/35 43/24/35 
s 64
f 42/24/36 41/21/36 45/22/36 
f 45/22/36 48/23/36 42/24/36 
# 12 faces

#
# object Box16944
#

v  -0.8298 0.0000 58.7589
v  -0.8298 0.0000 76.0163
v  -0.1043 0.0000 58.7589
v  -0.1043 0.0000 76.0163
v  -0.1043 -36.5461 76.0163
v  -0.8298 -36.5461 76.0163
v  -0.1043 -36.5461 58.7589
v  -0.8298 -36.5461 58.7589
# 8 vertices

vn 0.0000 1.0000 -0.0000
vn 0.0000 -1.0000 -0.0000
vn 0.0000 0.0000 1.0000
vn 1.0000 0.0000 -0.0000
vn 0.0000 0.0000 -1.0000
vn -1.0000 0.0000 -0.0000
# 6 vertex normals

vt 0.0000 1.0000 0.0000
vt 0.0000 0.0000 0.0000
vt 1.0000 1.0000 0.0000
vt 1.0000 0.0000 0.0000
# 4 texture coords

o Box16944
g Box16944
usemtl pared1
s 2
f 49/25/37 50/26/37 51/27/37 
f 52/28/37 51/27/37 50/26/37 
s 4
f 53/26/38 54/28/38 55/25/38 
f 56/27/38 55/25/38 54/28/38 
s 8
f 52/28/39 50/26/39 53/27/39 
f 54/25/39 53/27/39 50/26/39 
s 16
f 51/28/40 52/26/40 55/27/40 
f 53/25/40 55/27/40 52/26/40 
s 32
f 49/28/41 51/26/41 56/27/41 
f 55/25/41 56/27/41 51/26/41 
s 64
f 50/28/42 49/26/42 54/27/42 
f 56/25/42 54/27/42 49/26/42 
# 12 faces

#
# object Box16945
#

v  -0.9430 0.0000 40.2267
v  -0.9430 0.0000 62.2606
v  -0.6255 0.0000 40.2267
v  -0.6255 0.0000 62.2606
v  -0.6255 -5.3083 62.2606
v  -0.9430 -5.3083 62.2606
v  -0.6255 -5.3083 40.2267
v  -0.9430 -5.3083 40.2267
# 8 vertices

vn 0.0000 1.0000 -0.0000
vn 0.0000 -1.0000 -0.0000
vn 0.0000 0.0000 1.0000
vn 1.0000 0.0000 -0.0000
vn 0.0000 0.0000 -1.0000
vn -1.0000 0.0000 -0.0000
# 6 vertex normals

vt 0.0000 1.0000 0.0000
vt 0.0000 0.0000 0.0000
vt 1.0000 1.0000 0.0000
vt 1.0000 0.0000 0.0000
# 4 texture coords

o Box16945
g Box16945
usemtl pared1
s 2
f 57/29/43 58/30/43 59/31/43 
f 60/32/43 59/31/43 58/30/43 
s 4
f 61/30/44 62/32/44 63/29/44 
f 64/31/44 63/29/44 62/32/44 
s 8
f 60/32/45 58/30/45 61/31/45 
f 62/29/45 61/31/45 58/30/45 
s 16
f 59/32/46 60/30/46 63/31/46 
f 61/29/46 63/31/46 60/30/46 
s 32
f 57/32/47 59/30/47 64/31/47 
f 63/29/47 64/31/47 59/30/47 
s 64
f 58/32/48 57/30/48 62/31/48 
f 64/29/48 62/31/48 57/30/48 
# 12 faces

